<?xml version="1.0" encoding="utf-8"?>
<!-- Generator: Adobe Illustrator 23.0.1, SVG Export Plug-In . SVG Version: 6.00 Build 0)  -->
<svg version="1.1" id="Layer_1" xmlns="http://www.w3.org/2000/svg" xmlns:xlink="http://www.w3.org/1999/xlink" x="0px" y="0px"
	 viewBox="0 0 511.9 511.8" style="enable-background:new 0 0 511.9 511.8;" xml:space="preserve">
<style type="text/css">
	.st0{fill:none;}
	.st1{fill:none;stroke:#FFFFFF;stroke-width:5;stroke-miterlimit:10;}
</style>
<title>Asset 1</title>
<g>
	<g id="Layer_1-2">
		<path class="st0" d="M511.9,511.8H0V0h511.9V511.8z M381.2,431.1c32,24.6,64.7,7.9,75.5-13.6c6.2-12.4,7.5-25.4,2.7-38.3
			c-8.1-22-25-32.2-47.9-33.1c8.1-28.2,3.3-47.3-14.8-61c-16-12.2-38.1-13.7-54.8-2.4c-23.8,16.1-28.3,38.3-17.6,64.5
			c-24.8,0.3-42.2,11.2-50.1,34.7c-6.3,18.8,0.1,39.6,15.9,51.6c21,16.1,42.4,14.2,63.3-1.2c-2.5,10.7-10.5,21.3-21.3,28.9
			c-1.9,1.3-2.8,3.9-4.2,5.9c2.2,0.8,4.3,2.3,6.5,2.4c21.3,0.2,42.7,0.2,64,0c3.1,0,7.7,1.7,8.4-2.8c0.3-1.9-3.1-4.9-5.4-6.6
			C391.7,453,384.5,442.8,381.2,431.1z M126.5,197.6c-0.6,1.9-0.8,2.9-1.1,3.7c-4.6,11.1-12.3,19.6-22.3,26.3c-1.5,1-2,3.4-3,5.1
			c1.7,0.8,3.3,2.2,5,2.2c24.5,0.2,49,0.2,73.5,0c1.8,0,3.5-1.6,5.3-2.5c-1.1-1.7-1.9-3.7-3.3-5c-4.4-4.1-9.3-7.6-13.4-11.9
			c-4.7-5-8.1-11-9.7-17.7c2,0.9,3.2,1.5,4.4,2c21.1,10.2,46.5,4.3,61.4-14c12.8-15.8,16-43.2,0.3-61.9
			c-24.3-28.9-51.4-55-78.3-81.4c-2.4-2.4-4.6-2.1-6.9,0.2c-3.9,3.9-8,7.5-11.8,11.5c-22,23.2-44.2,46.2-65.9,69.7
			c-20.2,21.8-12.2,61.5,17.4,75.7C94,207.3,109.9,206.5,126.5,197.6z M363.1,68.5c-1.5-1.9-2.5-3.2-3.5-4.5
			c-17.8-22.3-45.4-25.1-65.8-7s-25.6,55.7-9,79.1c22.8,32.3,48.6,62.1,74.2,92.2c2.9,3.4,5.5,3,8.2-0.2c7.9-9.3,16-18.3,23.6-27.8
			c17-21.4,33.9-42.8,50.4-64.5c15.8-20.9,11.7-54.7-3.8-73.2c-12.1-14.5-30-20.6-46.9-15.5C378.8,50.4,370.3,58.2,363.1,68.5z
			 M224.8,371.1c-3.2-3.4-4.4-5.1-5.9-6.2c-31.4-24.4-56.6-56-73.5-92.1c-0.9-1.9-3-3.1-4.6-4.7c-1.5,1.6-3.5,3-4.4,4.9
			c-16.8,35.9-41.9,67.3-73.2,91.7c-5,3.9-5,5.6-0.1,9.5c31.3,24.4,56.4,55.8,73.2,91.7c0.9,1.9,2.9,3.2,4.4,4.8
			c1.6-1.7,3.6-3.1,4.8-5c7.9-13.3,15-27.1,23.7-39.9c13.4-19.7,30.1-36.5,48.9-51.1C220.1,373.4,222.4,372.5,224.8,371.1z"/>
		<path class="st1" d="M381.2,431.1c3.3,11.7,10.5,21.9,20.3,29c2.3,1.7,5.7,4.7,5.4,6.6c-0.7,4.5-5.3,2.8-8.4,2.8
			c-21.3,0.1-42.7,0.1-64,0c-2.2,0-4.3-1.5-6.5-2.4c1.4-2,2.3-4.6,4.2-5.9c10.7-7.6,18.8-18.2,21.3-28.9
			c-21,15.4-42.3,17.3-63.3,1.2c-15.8-12.1-22.2-32.8-15.9-51.6c7.9-23.5,25.3-34.5,50.1-34.7c-10.6-26.2-6.2-48.4,17.6-64.5
			c16.6-11.3,38.7-9.8,54.8,2.4c18.1,13.7,22.8,32.8,14.8,61c23,0.9,39.8,11.1,47.9,33.1c4.8,12.9,3.5,25.9-2.7,38.3
			C445.9,439,413.3,455.7,381.2,431.1z"/>
		<path class="st1" d="M126.5,197.6c-16.6,8.8-32.5,9.7-48.5,2c-29.6-14.2-37.6-53.8-17.4-75.6c21.7-23.5,43.9-46.5,65.9-69.7
			c3.8-4,7.9-7.6,11.8-11.5c2.3-2.3,4.4-2.6,6.9-0.2c26.9,26.4,53.9,52.5,78.3,81.4c15.7,18.6,12.5,46.1-0.3,61.9
			c-14.9,18.3-40.3,24.2-61.4,14c-1.2-0.6-2.4-1.1-4.4-2c1.7,6.6,5,12.7,9.7,17.7c4.1,4.3,9,7.8,13.4,11.9c1.4,1.3,2.2,3.3,3.3,5
			c-1.8,0.9-3.5,2.5-5.3,2.5c-24.5,0.2-49,0.2-73.5,0c-1.7,0-3.3-1.5-5-2.2c1-1.7,1.5-4.1,3-5.1c10-6.7,17.7-15.1,22.3-26.3
			C125.7,200.5,125.9,199.6,126.5,197.6z"/>
		<path class="st1" d="M363.1,68.5c7.2-10.3,15.7-18.1,27.4-21.5c16.9-5,34.8,1.1,46.9,15.5c15.5,18.5,19.6,52.3,3.7,73.2
			c-16.5,21.7-33.4,43.2-50.4,64.5c-7.6,9.5-15.8,18.5-23.6,27.8c-2.7,3.2-5.3,3.7-8.2,0.2c-25.6-30-51.4-59.9-74.2-92.2
			c-16.6-23.4-11.4-61,9-79.1s48-15.2,65.8,7.1C360.6,65.3,361.6,66.6,363.1,68.5z"/>
		<path class="st1" d="M224.8,371.1c-2.5,1.4-4.7,2.2-6.6,3.6c-18.8,14.6-35.5,31.4-48.9,51.1c-8.6,12.8-15.7,26.6-23.7,39.9
			c-1.2,1.9-3.2,3.4-4.8,5c-1.5-1.6-3.5-2.9-4.4-4.8c-16.8-35.9-41.9-67.3-73.2-91.7c-5-3.9-5-5.6,0.1-9.5
			c31.3-24.4,56.3-55.8,73.2-91.7c0.9-1.9,2.9-3.3,4.4-4.9c1.6,1.5,3.7,2.8,4.6,4.7c16.9,36.1,42.1,67.6,73.5,92.1
			C220.5,366.1,221.6,367.7,224.8,371.1z"/>
	</g>
</g>
</svg>
